<?xml version="1.0" standalone="no"?>
<!DOCTYPE svg PUBLIC "-//W3C//DTD SVG 1.1//EN" "http://www.w3.org/Graphics/SVG/1.1/DTD/svg11.dtd" >
<svg xmlns="http://www.w3.org/2000/svg">
<metadata>Generated by IcoMoon</metadata>
<defs>
<font id="icomoon" horiz-adv-x="1024">
<font-face units-per-em="1024" ascent="960" descent="-64" />
<missing-glyph horiz-adv-x="1024" />
<glyph unicode="&#x20;" horiz-adv-x="512" d="" />
<glyph unicode="&#xe900;" glyph-name="Download" horiz-adv-x="1088" d="M51.648 924.8c-11.199-5.22-18.822-16.383-18.822-29.326 0-4.379 0.872-8.553 2.453-12.36l-0.079 0.214c1.472-3.2 111.424-165.376 244.48-360.32 226.496-332.032 242.304-354.816 249.792-358.592 4.167-2.447 9.179-3.893 14.528-3.893s10.361 1.445 14.665 3.967l-0.137-0.074c7.552 3.84 22.72 25.6 249.856 358.592 132.992 194.944 243.008 357.12 244.416 360.32 1.519 3.596 2.402 7.777 2.402 12.165 0 13.081-7.849 24.329-19.094 29.291l-0.205 0.081c-8.576 3.648-976 3.584-984.256-0.064zM962.88 863.040c0-2.048-417.472-612.928-418.88-612.928s-418.88 610.88-418.88 612.928c0 0.448 188.48 0.832 418.88 0.832s418.88-0.384 418.88-0.832zM51.648 28.16c-20.608-9.536-25.536-33.472-10.304-49.856 10.24-10.944-26.688-10.176 502.656-10.176s492.416-0.768 502.656 10.176c15.232 16.384 10.304 40.32-10.368 49.856-6.976 3.2-24.512 3.328-492.288 3.328s-485.312-0.128-492.352-3.328z" />
<glyph unicode="&#xe901;" glyph-name="Broadcast" d="M979.648 956.8c-4.224-1.728-98.56-45.056-209.664-96.384l-201.984-93.248h-182.016c-201.856-0.064-198.208 0.128-232.128-11.2-67.741-22.814-120-75.367-141.949-141.72l-0.451-1.576c-14.72-44.928-14.080-99.264 1.6-142.912 27.806-75.819 93.042-131.744 172.72-145.849l1.36-0.199 17.344-2.816 73.024-141.696c93.952-182.080 95.040-184.128 104.128-195.328 27.52-33.856 74.304-52.48 116.032-46.144 43.75 6.071 79.896 33.752 97.721 71.737l0.327 0.775c9.344 19.904 12.48 36.224 11.456 59.456-0.231 11.118-1.922 21.749-4.888 31.834l0.216-0.858c-4.224 13.44-65.024 133.504-71.424 141.184-6.016 7.104-12.544 9.856-23.36 9.856-14.336 0-23.424-6.016-28.928-19.136-5.312-12.736-4.672-14.464 31.104-84.928l33.664-66.432v-17.6c0-16.384-0.384-18.24-5.44-27.904-21.248-40.768-74.944-48.256-104.896-14.656-4.992 5.696-28.608 49.728-81.856 153.024l-74.816 145.088 293.44 0.832 207.552-95.744c205.376-94.848 207.616-95.808 216.64-95.040 11.084 0.585 20.576 6.876 25.647 15.97l0.081 0.158c3.136 6.4 3.264 16.832 3.712 395.456 0.256 279.296-0.128 390.848-1.472 395.904-4.765 13.21-16.921 22.604-31.351 23.229l-0.073 0.003c-4.154-0.664-7.877-1.757-11.385-3.255l0.313 0.119zM960.832 544.256c0-317.184-0.128-333.824-2.944-333.056-193.983 83.276-255.855 112.206-317.565 141.424l129.341-55.088-185.216 85.44-383.936 1.152-14.464 3.84c-34.182 9.601-63.181 28.321-85.14 53.368l-0.172 0.2c-14.388 18.526-25.626 40.319-32.434 63.989l-0.334 1.355c-5.12 21.248-5.12 55.488 0.128 74.944 7.808 29.184 19.904 51.008 40.256 72.448 19.199 20.35 43.528 35.657 70.924 43.867l1.14 0.293 14.976 4.736 387.456 1.024 187.712 86.784c-81.582-31.878-19.47-2.741 42.789 26.132l146.203 60.844c0.704 0.064 1.28-150.080 1.28-333.696z" />
<glyph unicode="&#xe902;" glyph-name="brochure" d="M86.208 957.952c-7.961-2.523-14.305-8.156-17.717-15.438l-0.075-0.178-3.584-7.36 0.896-977.92 4.544-6.848c2.496-3.776 7.488-8.32 11.072-10.112 6.4-3.136 15.872-3.264 366.656-3.264s360.256 0.128 366.656 3.264c4.448 2.583 8.145 5.974 11 10.004l0.072 0.108 4.544 6.848v981.888l-4.544 6.848c-2.927 4.138-6.624 7.529-10.908 10.024l-0.164 0.088c-6.4 3.136-16.192 3.264-364.928 3.52-250.368 0.256-359.936-0.256-363.52-1.472zM768 448v-448.832h-640v897.664h640v-448.832zM982.208 829.888c-7.952-2.472-14.298-8.066-17.717-15.312l-0.075-0.176-3.584-7.36v-718.080l3.584-7.36c5.108-10.187 15.469-17.056 27.435-17.056 8.684 0 16.523 3.618 22.091 9.429l0.010 0.011c3.528 3.624 6.301 8.003 8.050 12.87l0.078 0.25c2.688 9.6 2.688 712.192 0 721.792-3.619 9.899-11.285 17.565-20.941 21.106l-0.243 0.078c-8.128 2.304-11.904 2.24-18.688-0.192zM424.32 702.208c-43.197-5.824-81.071-25.156-110.049-53.537l0.033 0.033c-35.604-34.832-57.679-83.367-57.679-137.058 0-16.86 2.177-33.211 6.264-48.789l-0.298 1.335c18.624-71.168 74.496-124.096 147.84-140.032 16.576-3.584 54.656-4.096 70.784-0.896 40.204 7.351 75.048 26.523 101.73 53.73l0.030 0.030c28.672 28.672 45.824 61.12 53.76 101.76 3.2 16.128 2.688 54.208-0.896 70.784-7.875 38.509-26.584 71.774-52.769 97.442l-0.031 0.030c-32.799 33.682-78.228 54.924-128.621 56.060l-0.211 0.004c-9.984 0.384-23.424 0-29.888-0.896zM465.344 638.976c46.4-6.4 85.888-37.952 102.4-81.792 5.273-13.465 8.33-29.057 8.33-45.362 0-54.425-34.053-100.897-82.015-119.272l-0.875-0.294c-13.465-5.273-29.057-8.33-45.362-8.33-54.425 0-100.897 34.053-119.272 82.015l-0.294 0.875c-31.168 82.88 28.288 170.88 117.504 173.824 3.456 0.128 12.288-0.64 19.584-1.664zM277.312 189.44c-12.103-4.617-20.545-16.13-20.545-29.614 0-2.456 0.28-4.847 0.81-7.143l-0.041 0.213c2.752-10.304 7.424-16.32 16.064-20.48 7.296-3.52 8.576-3.584 174.4-3.584s167.104 0.064 174.4 3.584c10.187 5.108 17.056 15.469 17.056 27.435 0 8.684-3.618 16.523-9.429 22.091l-0.011 0.010c-3.624 3.528-8.003 6.301-12.87 8.050l-0.25 0.078c-4.736 1.344-55.872 1.856-169.728 1.856-136.064-0.064-164.16-0.512-169.856-2.496z" />
<glyph unicode="&#xe903;" glyph-name="calendar" d="M277.312 957.504c-9.183-3.852-16.204-11.312-19.384-20.559l-0.072-0.241c-1.088-3.968-1.856-26.112-1.856-55.552v-48.96l-89.152-0.576c-85.44-0.576-89.6-0.704-98.624-4.16-33.536-12.672-52.736-32.192-64.128-65.408-3.136-9.088-3.264-21.056-3.264-378.048s0.128-368.96 3.264-378.048c12.544-36.48 38.016-59.84 73.6-67.392 17.984-3.776 850.624-3.776 868.608 0 37.928 7.826 67.31 37.208 75.029 74.515l0.107 0.621c3.776 17.92 3.776 722.688 0 740.608-7.488 35.2-31.36 61.44-67.264 73.92-6.656 2.304-21.056 2.816-97.024 3.328l-89.152 0.64v48.96c0 30.464-0.704 51.52-1.92 55.744-1.827 5.117-4.6 9.496-8.136 13.128l0.008-0.008c-5.579 5.822-13.418 9.44-22.101 9.44-11.966 0-22.327-6.87-27.354-16.88l-0.080-0.176c-3.392-6.976-3.584-10.176-3.584-58.88v-51.52h-385.536l-0.512 53.44-0.512 53.504-4.544 6.848c-5.748 8.229-15.174 13.545-25.842 13.545-3.792 0-7.427-0.672-10.793-1.902l0.218 0.070zM937.6 766.72c9.859-3.652 17.503-11.276 21.104-20.875l0.080-0.245c1.408-4.864 2.048-22.4 2.048-56.704v-49.728h-897.664v49.728c0 34.304 0.64 51.84 2.048 56.704 3.619 9.553 10.851 17.035 19.985 20.902l0.239 0.090c8.96 2.88 842.688 3.008 852.16 0.128zM960.832 302.72c0-210.88-0.448-274.88-2.048-280.32-3.696-9.852-11.332-17.488-20.938-21.103l-0.246-0.081c-10.24-3.008-840.96-3.008-851.2 0-9.852 3.696-17.488 11.332-21.103 20.938l-0.081 0.246c-1.6 5.44-2.048 69.44-2.048 280.32v273.28h897.664v-273.28zM337.984 508.096c-4.296-2.697-7.968-5.901-11.078-9.594l-0.058-0.070-5.12-6.4-0.512-86.016-0.448-86.016h-81.472c-54.144 0-83.712-0.64-88.192-1.92-10.176-3.645-17.995-11.653-21.307-21.709l-0.069-0.243c-0.724-2.488-1.14-5.346-1.14-8.301 0-10.6 5.358-19.949 13.513-25.486l0.108-0.069 6.848-4.544 170.944-1.728 0.832-85.44 0.896-85.504 4.544-6.848c7.232-10.944 20.864-16 33.856-12.48 10.299 3.381 18.307 11.2 21.877 21.136l0.075 0.24c1.28 4.48 1.92 34.048 1.92 88.256v81.472h256v-81.472c0-54.208 0.64-83.776 1.92-88.256 3.645-10.176 11.653-17.995 21.709-21.307l0.243-0.069c2.488-0.724 5.346-1.14 8.301-1.14 10.6 0 19.949 5.358 25.486 13.513l0.069 0.108 4.544 6.848 0.896 85.504 0.832 85.44 170.944 1.728 6.848 4.544c8.263 5.606 13.62 14.955 13.62 25.555 0 2.955-0.416 5.813-1.194 8.518l0.053-0.217c-3.381 10.299-11.2 18.307-21.136 21.877l-0.24 0.075c-4.48 1.28-34.048 1.92-88.256 1.92h-81.472v84.032c0 94.272 0.448 90.624-12.544 100.992-5.888 4.736-7.808 5.248-18.048 5.248-9.6 0-12.608-0.704-18.368-4.544-13.568-8.96-13.312-6.784-13.824-101.696l-0.448-84.032h-255.872l-0.448 84.032c-0.448 78.72-0.704 84.48-3.712 90.624-6.912 13.952-28.48 20.864-41.92 13.44z" />
<glyph unicode="&#xe904;" glyph-name="Call" d="M533.12 925.696c-4.524-1.953-8.347-4.751-11.427-8.223l-0.029-0.033c-13.056-14.464-11.904-32.768 3.008-45.824 6.592-5.824 9.792-6.464 39.36-8 96.151-4.915 182.12-44.862 246.164-107.218l-0.084 0.082c68.272-65.158 112.298-155.206 117.466-255.525l0.038-0.923c1.536-29.568 2.176-32.768 8-39.36 13.056-14.912 31.36-16.064 45.824-3.008 9.28 8.384 10.816 15.232 9.472 42.368-3.521 72.497-23.564 139.599-56.41 198.594l1.178-2.306c-71.658 127.959-201.098 216.151-352.037 229.384l-1.691 0.12c-23.232 2.048-41.472 2.048-48.832-0.128zM219.328 829.568c-5.632-1.28-43.264-10.88-83.648-21.376-78.144-20.288-90.176-24.576-105.28-37.632-11.281-10.426-20.012-23.443-25.263-38.116l-0.209-0.668c-7.68-22.592-3.904-57.664 14.016-130.176 54.944-217.431 184.607-398.414 359.475-518.237l3.021-1.955c92.196-63.034 200.729-110.050 317.629-134.174l5.763-0.994c50.56-10.048 62.912-11.328 79.424-7.936 28.544 5.824 51.584 23.168 63.040 47.424 6.656 14.144 46.208 162.56 48.064 180.416 2.048 19.2-4.864 42.944-17.408 59.968-11.584 15.808-23.168 23.040-68.352 43.072-123.008 54.528-145.664 64.384-154.112 66.88-18.752 5.504-44.736 2.688-63.744-6.912-14.976-7.552-21.12-13.568-49.472-49.152l-28.672-35.712c-1.728-1.92-31.808 18.816-60.288 41.472-37.744 31.929-71.622 65.807-102.513 102.293l-1.039 1.259c-22.592 28.352-43.392 58.56-41.472 60.224l35.072 28.032c18.496 14.72 36.224 30.016 39.488 33.984 18.816 23.232 24.96 55.616 15.872 83.584-21.296 53.228-36.163 87.022-51.651 120.469l7.427-17.877c-29.312 65.664-42.176 92.672-47.488 99.52-19.648 25.472-57.216 39.296-87.68 32.32zM244.16 767.168c3.328-0.96 8.064-3.84 10.56-6.4 2.752-2.88 20.48-40.512 44.8-95.168 38.016-85.376 40.256-90.944 39.68-99.136-0.297-4.744-1.661-9.112-3.853-12.946l0.077 0.146c-1.728-2.24-23.808-20.608-48.96-40.704-51.2-40.896-53.824-43.84-52.224-59.968 0.832-8.832 3.968-14.656 24.704-46.4 58.702-87.954 132.713-160.842 218.884-216.524l2.94-1.78c25.216-16 30.464-18.496 39.168-18.496 13.888 0 18.048 3.84 57.024 52.672 20.096 25.152 38.4 47.168 40.704 48.896 3.508 2.104 7.667 3.503 12.114 3.896l0.11 0.008c7.552 0.704 13.824-1.792 98.304-39.040 97.024-42.88 101.376-45.312 103.808-58.176 0.896-4.864-3.264-23.040-19.328-84.672-11.264-43.2-21.76-80.512-23.36-82.88-2.841-3.399-6.367-6.125-10.376-7.987l-0.184-0.077-7.68-3.776-28.416 4.736c-65.363 11.593-123.262 28.464-178.391 50.752l5.911-2.112c-46.205 19.623-84.511 39.159-121.323 60.951l4.715-2.583c-198.427 121.356-339.847 319.346-383.646 551.807l-0.802 5.121c-7.488 40.832-6.72 47.936 6.272 57.6 3.648 2.752 152.064 43.328 160.128 43.776 3.167-0.223 6.112-0.769 8.93-1.61l-0.29 0.074zM529.472 732.032c-10.108-5.411-16.868-15.899-16.868-27.965 0-10.080 4.717-19.058 12.064-24.847l0.067-0.051c6.080-4.672 9.6-5.376 45.44-9.152 28.992-3.136 64-17.28 88.704-35.84 14.080-10.624 34.688-32.128 44.224-46.144 18.368-27.008 29.568-60.032 32.448-95.424 1.024-12.48 2.816-23.424 4.48-26.88 9.856-20.672 38.912-23.232 53.056-4.608 4.736 6.144 4.8 6.592 4.736 30.272-0.128 100.864-72.064 197.312-171.776 230.4-19.932 7.504-42.965 11.983-67.004 12.287l-0.132 0.001c-20.16 0.704-24.768 0.384-29.44-2.048z" />
<glyph unicode="&#xe905;" glyph-name="Consultant" d="M533.312 957.44c-9.19-3.809-16.219-11.256-19.385-20.496l-0.071-0.24c-2.624-9.408-2.56-456.256 0.064-465.6 4.096-14.912 21.952-25.536 36.48-21.696 3.776 0.96 56 29.824 116.032 64.192l109.248 62.4h109.248c74.432 0 111.36 0.64 115.968 1.92 9.899 3.619 17.565 11.285 21.106 20.941l0.078 0.243c2.688 9.536 2.688 328.256 0 337.792-3.619 9.899-11.285 17.565-20.941 21.106l-0.243 0.078c-4.8 1.344-73.216 1.856-233.728 1.856-191.232-0.064-228.096-0.448-233.856-2.496zM960.448 767.616l0.448-128.384-203.968-0.96-90.24-51.584c-49.664-28.416-90.56-51.648-90.88-51.648-1.216 0-0.704 359.488 0.512 360.704 0.576 0.64 87.168 0.96 192.384 0.704l191.296-0.448 0.448-128.384zM254.272 635.968c-59.915-13.688-106.463-59.382-121.171-117.736l-0.237-1.112c-4.736-19.456-5.184-53.696-0.896-71.232 15.104-62.080 61.824-108.416 123.136-122.112 18.176-4.032 50.944-3.52 69.824 1.088 57.268 14.339 101.739 57.875 117.171 113.49l0.269 1.134c3.392 12.416 3.904 18.304 3.776 41.792-0.128 24.448-0.64 28.864-4.672 42.304-8.31 28.181-23.285 52.241-43.141 71.24l-0.059 0.056c-18.117 17.663-40.56 30.974-65.586 38.192l-1.102 0.272c-13.461 3.481-28.914 5.479-44.833 5.479-11.478 0-22.713-1.039-33.617-3.027l1.139 0.172zM311.232 573.44c22.592-5.888 42.88-20.032 55.68-38.912 10.752-15.68 15.488-29.376 16.64-47.616 1.856-29.696-7.104-53.632-27.52-73.984-20.48-20.352-40.32-28.8-67.584-28.736-27.648 0-49.088 8.832-68.48 28.096-32.32 32.128-37.376 80.832-12.544 120.192 11.584 18.496 35.968 35.84 57.6 41.088 12.352 3.008 34.432 2.944 46.208-0.128zM186.176 252.48c-12.879-2.599-23.679-5.517-34.206-9.031l2.014 0.583c-77.952-26.112-133.76-89.984-149.888-171.52-3.712-19.072-5.504-101.056-2.432-112.576 3.385-10.429 11.348-18.519 21.455-22.008l0.241-0.072c4.992-1.344 81.408-1.792 267.84-1.472 252.736 0.448 261.12 0.576 267.456 3.712 4.448 2.583 8.145 5.974 11 10.004l0.072 0.108 4.544 6.912v53.824c0 52.864-0.128 54.272-4.608 72.128-10.417 43.164-32.259 80.22-62.138 108.989l-0.070 0.067c-30.080 29.184-61.12 46.336-103.68 57.472l-17.216 4.48-92.992 0.384c-74.624 0.384-95.872-0.064-107.392-1.984zM384.96 188.736c59.376-13.025 105.866-57.363 121.778-114.448l0.27-1.136c2.944-10.624 3.904-19.648 4.544-43.712l0.832-30.272h-449.728l0.96 28.544c1.088 31.68 3.968 46.144 13.696 68.544 15.653 34.553 41.928 62.006 74.602 78.741l0.918 0.427c12.849 6.406 27.765 11.525 43.413 14.599l1.131 0.185c4.544 0.768 45.12 1.472 90.176 1.6 73.856 0.128 83.456-0.192 97.408-3.072z" />
<glyph unicode="&#xe906;" glyph-name="down-arrow-1" d="M21.568 701.504c-12.339-4.338-21.025-15.89-21.025-29.472 0-3.113 0.456-6.12 1.306-8.957l-0.057 0.221c1.92-7.424 18.176-24 245.504-251.712 138.88-139.072 246.080-245.12 249.728-247.040 4.401-2.031 9.55-3.216 14.976-3.216s10.575 1.185 15.203 3.309l-0.227-0.093c3.648 1.92 110.784 107.904 249.728 247.040 218.432 218.816 243.584 244.544 245.44 251.2 0.805 2.661 1.269 5.719 1.269 8.885 0 17.532-14.212 31.744-31.744 31.744-3.166 0-6.224-0.464-9.109-1.326l0.225 0.058c-6.656-1.856-31.168-25.856-239.104-233.472l-231.68-231.424-231.68 231.424c-202.368 202.112-232.576 231.616-238.72 233.344-8.832 2.496-11.84 2.432-20.032-0.512z" />
<glyph unicode="&#xe907;" glyph-name="Download-2" d="M501.82 927.232c-7.452-2.67-13.349-8.116-16.551-15.062l-0.074-0.178c-2.771-5.542-2.952-20.54-3.735-303.224l-0.783-297.442-125.41 124.988c-68.969 68.728-127.518 126.012-130.108 127.337-12.83 6.626-24.998 4.578-35.418-5.843-5.301-5.301-6.987-8.312-7.891-14.456-2.53-16.866-11.866-6.445 157.214-175.827 106.315-106.556 156.491-155.708 160.888-157.756 3.554-1.687 8.975-3.012 12.047-3.012 4.42 0.28 8.522 1.361 12.257 3.099l-0.21-0.088c4.397 2.048 54.573 51.2 160.888 157.756 133.903 134.144 154.744 155.648 156.431 161.431 0.821 2.594 1.294 5.577 1.294 8.671 0 16.401-13.295 29.696-29.696 29.696-2.578 0-5.079-0.328-7.464-0.946l0.206 0.045c-6.325-1.626-19.576-14.396-135.108-129.747l-128.060-128v293.346c0 189.741-0.602 296.297-1.626 301.779-3.614 19.155-21.624 29.877-39.093 23.432zM76.439 21.896c-9.354-4.996-15.61-14.694-15.61-25.853 0-1.999 0.201-3.951 0.583-5.837l-0.032 0.188c2.595-10.837 10.497-19.377 20.738-22.824l0.223-0.065c9.096-2.53 850.221-2.53 859.317 0 10.465 3.513 18.367 12.052 20.918 22.673l0.044 0.216c2.048 13.854-3.674 25.6-15.42 31.563-6.144 3.132-11.324 3.192-435.561 3.132-421.225-0.060-429.417-0.12-435.2-3.192z" />
<glyph unicode="&#xe908;" glyph-name="Ebook" d="M135.68 957.504c-17.849-3.186-33.778-8.342-48.666-15.346l1.178 0.498c-32.96-16.768-63.296-49.984-76.224-83.584-11.904-30.912-10.944 4.224-11.52-418.688-0.576-417.6-0.96-398.080 9.152-423.296 15.798-38.298 48.272-66.921 88.124-77.117l0.9-0.195c10.688-2.752 37.824-2.944 413.376-2.944 454.272 0 410.688-1.344 442.048 14.080 13.632 6.656 18.624 10.368 31.616 23.424 13.056 12.992 16.768 17.984 23.424 31.616 15.424 31.36 14.080-10.304 14.080 427.52 0 353.792-0.256 388.48-2.816 399.424-14.592 62.144-60.032 107.84-122.624 123.392-10.048 2.496-46.336 2.816-379.776 3.072-291.904 0.256-371.456-0.128-382.272-1.856zM192.832 682.56l0.896-213.504 4.544-6.848c4.544-6.848 12.16-11.648 21.44-13.504 11.968-2.432 16.704 0.704 91.84 60.8l72.448 57.984 72.448-57.984c75.136-60.096 79.872-63.232 91.84-60.8 8.907 1.545 16.443 6.481 21.372 13.403l0.068 0.101 4.544 6.848 0.896 213.504 0.832 213.44h151.872c142.592 0 152.512-0.192 162.176-3.136 31.898-9.834 56.593-34.255 66.617-65.273l0.199-0.711c3.008-8.96 3.136-23.552 3.584-330.688 0.256-176.704 0.192-321.28-0.192-321.28-0.32 0-5.76 2.368-12.032 5.184-26.432 11.968 10.048 11.072-436.224 11.072s-409.792 0.896-436.224-11.072c-2.615-1.308-6.579-3.051-10.605-4.675l-1.427-0.509c-0.384 0-0.448 144.576-0.192 321.28l0.448 321.28 3.84 11.136c7.552 21.952 20.416 39.168 38.080 50.944 19.456 13.056 35.648 17.088 66.432 16.704l19.648-0.256 0.832-213.44zM512 721.728c0-139.84-0.448-174.848-2.112-173.504l-54.208 43.264c-28.608 22.848-54.72 42.944-57.984 44.608-4.361 1.906-9.443 3.014-14.783 3.014-3.204 0-6.315-0.399-9.285-1.15l0.261 0.056c-2.304-0.64-28.8-20.8-58.88-44.864-30.144-24.064-55.68-44.352-56.896-45.056-1.664-1.024-2.112 34.112-2.112 173.696v175.040h256v-175.104zM908.288 126.912c28.352-6.016 48-27.648 50.752-55.936 3.328-34.56-17.152-62.784-50.752-69.888-12.864-2.752-779.712-2.752-792.576 0-20.692 4.347-37.481 18.060-45.977 36.398l-0.167 0.402c-4.8 10.176-5.248 12.8-5.056 26.56 0.192 13.12 0.96 16.832 5.248 26.112 8.512 18.176 26.624 32.832 45.184 36.544 11.52 2.24 782.592 2.112 793.344-0.192z" />
<glyph unicode="&#xe909;" glyph-name="Email" d="M149.312 957.44c5.824 2.048 60.288 2.432 361.856 2.496 253.952 0 356.928-0.512 361.728-1.856l0.243-0.078c9.656-3.541 17.322-11.207 20.941-21.106 2.688-9.536 2.688-295.872 0-305.408l-0.068-0.236c-3.631-10.904-12.719-19.314-24.252-22.036l0.199 0.033c-1.973-0.389-4.013-0.593-6.101-0.593-11.566 0-21.67 6.261-27.186 15.728-2.688 4.928-3.008 16.512-3.84 138.496l-0.832 133.12h-640l-0.832-133.12c-0.832-121.984-1.152-133.568-3.84-138.496l-0.080-0.149c-5.436-9.318-15.54-15.579-27.106-15.579-2.087 0-4.127 0.204-5.902 0.56-10.24 1.536-21.44 11.776-24.32 22.272-2.624 9.344-2.688 295.872-0.064 305.216l0.071 0.24c3.166 9.24 10.195 16.687 19.385 20.496zM337.984 764.032c5.696 3.008 12.736 3.136 176 2.688l170.048-0.448 6.592-5.248c9.536-7.616 12.864-14.912 12.096-26.56v-0.029c-0.213-11.328-6.583-21.15-16.064-26.339-6.336-3.136-12.736-3.264-174.656-3.264s-168.32 0.128-174.656 3.264c-3.584 1.792-8.576 6.336-11.072 10.112-3.84 5.76-4.544 8.768-4.544 18.368 0 10.24 0.512 12.16 5.12 17.856l0.056 0.068c3.111 3.674 6.783 6.858 11.080 9.532zM21.312 573.504c-9.268-3.904-16.332-11.491-19.45-20.878l-0.070-0.242c-1.344-4.864-1.728-86.144-1.408-272.832l0.448-265.92 3.648-9.408c10.688-27.84 26.752-46.72 48.704-57.152 24.896-11.776-8-11.008 458.816-11.008s433.92-0.768 458.816 11.008c17.216 8.192 33.92 24.896 42.112 42.112 11.584 24.448 11.008 8.96 11.008 296.704 0.064 184.704-0.512 262.208-1.856 267.008-4.096 14.912-21.952 25.536-36.48 21.696-3.776-0.96-110.144-56.896-236.352-124.224 89.22 40.947 12.597-0.37-64.216-41.38l-169.832-82.78c-4.032-1.472-26.368 10.048-228.672 117.888 588.072-288.502 511.255-246.909 434.39-205.392l-669.014 330.384c-12.48 6.528-21.376 7.808-30.592 4.416zM342.208 573.952c3.52 1.216 56.768 1.728 171.52 1.472 159.872-0.256 166.656-0.384 172.928-3.52l0.159-0.080c9.321-5.109 15.692-14.931 15.905-26.288 0.768-11.648-2.56-18.944-12.096-26.56l-6.592-5.248-170.048-0.448c-163.264-0.448-170.304-0.32-176 2.688l-0.174 0.082c-10.050 5.225-16.914 15.732-16.914 27.842 0 5.126 1.23 9.965 3.328 14.060l0.074 0.183c3.384 7.458 9.815 13.241 17.91 15.817zM282.88 374.208l218.048-116.48h22.144l218.048 116.48c-114.097-53.67-42.447-14.914 29.351 23.601l189.529 92.879c0.448 0 0.832-103.808 0.832-230.656 0-177.152-0.448-232.256-2.048-237.632-3.696-9.852-11.332-17.488-20.938-21.103l-0.246-0.081c-10.24-3.008-840.96-3.008-851.2 0-9.852 3.696-17.488 11.332-21.103 20.938l-0.081 0.246c-1.6 5.376-2.048 60.48-2.048 237.632 0 126.848 0.384 230.656 0.832 230.656 0.512 0 99.008-52.416 218.88-116.48z" />
<glyph unicode="&#xe90a;" glyph-name="Folder" d="M214.208 957.952c-8.095-2.576-14.525-8.358-17.91-15.817l-0.074-0.183c-2.083-4.082-3.303-8.903-3.303-14.009 0-12.1 6.853-22.6 16.889-27.829l0.174-0.082c5.696-3.072 16-3.2 304-2.752l298.048 0.448 6.592 5.248c9.536 7.616 12.864 14.912 12.096 26.56-0.213 11.357-6.584 21.179-15.905 26.288l-0.159 0.080c-6.336 3.136-15.104 3.264-300.928 3.52-205.184 0.256-296-0.256-299.52-1.472zM70.848 763.968c-32.064-9.28-57.088-33.92-66.88-65.92-2.944-9.792-3.136-25.6-3.136-346.496 0-325.184 0.128-336.512 3.264-345.6 12.544-36.48 38.016-59.84 73.6-67.392 10.304-2.176 68.352-2.496 433.92-2.56 468.992 0 435.776-0.832 460.16 11.456 16.768 8.448 33.28 25.216 41.152 41.792 11.84 24.96 11.2 1.536 10.688 368.768-0.448 316.16-0.64 331.904-3.584 340.864-9.634 29.288-31.475 52.219-59.345 63.123l-0.687 0.237-10.24 4.032-434.368 0.32c-407.424 0.32-434.944 0.128-444.544-2.624zM940.864 701.696c8.468-4.526 14.905-11.919 18.093-20.854l0.083-0.266c2.752-9.984 2.496-648.896-0.256-658.176-3.696-9.852-11.332-17.488-20.938-21.103l-0.246-0.081c-10.24-3.008-840.96-3.008-851.2 0-9.852 3.696-17.488 11.332-21.103 20.938l-0.081 0.246c-2.752 9.28-3.008 648.192-0.256 658.176 3.248 9.092 9.528 16.429 17.597 20.956l0.195 0.1c7.744 3.392 850.048 3.456 858.112 0.064z" />
<glyph unicode="&#xe90b;" glyph-name="Footprint" d="M327.68 892.608c-32.865-7.147-59.725-28.294-74.465-56.735l-0.287-0.609c-9.856-20.736-11.456-28.992-11.456-60.416 0-23.872 0.512-28.928 4.032-40.064 12.032-38.4 35.072-65.984 69.376-83.008 24.896-12.352 47.104-13.76 74.24-4.672 32.704 10.88 58.432 36.8 68.352 68.8 7.616 24.384 8.192 59.584 1.408 84.032-4.849 15.744-11.312 29.45-19.407 42.005l0.399-0.661c-15.475 20.581-35.667 36.81-59.017 47.237l-0.951 0.379c-9.79 3.563-21.090 5.624-32.872 5.624-6.848 0-13.534-0.696-19.99-2.022l0.638 0.109zM658.752 893.44c-18.368-3.2-44.48-18.944-61.888-37.376-18.123-18.897-30.605-43.332-34.665-70.52l-0.087-0.712c-2.432-14.080-2.56-19.904-0.96-37.248 2.112-23.936 6.272-38.464 15.232-53.632 21.12-35.712 65.344-57.536 104.576-51.712 22.4 3.328 52.544 20.864 68.864 40.128 23.424 27.584 33.472 55.232 33.536 92.096 0 25.472-3.392 42.368-12.224 60.8-19.648 40.832-67.84 65.792-112.384 58.176zM361.472 827.904c18.24-9.28 31.936-26.624 37.184-47.040 3.584-14.016 2.112-37.952-3.072-50.048-6.144-14.336-24.832-26.816-40.064-26.816-10.816 0-31.616 15.296-41.152 30.272-8.384 13.184-11.136 25.536-10.24 46.592 0.64 16.32 1.28 19.136 5.888 27.392 3.311 5.984 7.793 10.936 13.172 14.692l0.14 0.092c14.4 9.792 25.6 11.2 38.144 4.864zM696.512 825.792c8.832-4.864 13.824-10.176 19.648-21.12 2.688-4.992 3.2-9.792 3.2-28.992 0-22.784-0.064-23.168-5.824-34.624-9.088-18.176-31.936-37.056-44.736-37.056-17.681 1.16-32.67 11.643-40.193 26.539l-0.127 0.277c-4.288 10.112-6.336 33.984-3.968 46.144 3.968 20.416 19.008 41.088 36.864 50.56 10.816 5.76 22.336 5.184 35.136-1.728zM75.84 665.152c-18.752-6.4-31.424-14.464-44.864-28.608-19.904-20.928-28.16-42.24-30.272-78.016-3.52-60.48 27.776-111.552 82.944-135.104 22.784-9.728 53.888-7.36 81.6 6.144 17.536 8.576 37.184 28.864 46.016 47.424 9.856 20.928 11.456 29.184 11.456 60.608 0 24-0.512 28.864-4.032 40.128-7.263 24.109-20.481 44.589-37.969 60.445l-0.111 0.099c-11.94 11.894-26.399 21.268-42.506 27.252l-0.822 0.268c-16.64 6.080-42.432 5.76-61.44-0.64zM886.336 665.792c-31.744-11.84-62.144-41.344-75.456-73.28-8.32-20.032-11.136-37.76-9.856-62.592 1.92-37.888 10.176-58.752 31.744-80.32 22.464-22.464 51.392-33.664 82.176-31.744 37.44 2.24 78.784 33.92 96.448 73.92 9.216 20.864 11.712 33.792 11.52 59.456-0.384 41.6-8.448 63.744-32 87.232-22.208 22.208-45.056 31.488-76.928 31.296-13.504-0.064-19.328-0.896-27.648-3.968zM120.32 604.416c13.76-6.464 25.472-18.368 32.832-33.152l6.4-12.992v-22.272c0-21.504-0.128-22.592-5.056-31.424-7.347-14.049-21.604-23.592-38.137-24.126l-0.071-0.002c-12.992 0-34.624 16-43.392 32-13.888 25.536-12.16 64.64 3.584 81.216 8.618 8.172 19.987 13.519 32.581 14.516l0.187 0.012c1.408 0.128 6.4-1.6 11.072-3.776zM934.72 602.24c16.32-7.744 23.424-20.224 25.28-44.352 1.984-26.112-5.376-46.464-22.464-62.080-20.096-18.304-35.648-19.968-55.744-5.76-5.349 3.97-9.592 9.136-12.378 15.117l-0.102 0.243c-4.608 9.408-4.864 11.264-4.864 31.36 0 20.352 0.192 21.824 5.312 32.384 8.64 17.92 22.336 31.36 37.696 36.8 7.936 2.816 15.616 1.792 27.264-3.712zM485.952 573.376c-120.448-18.816-249.6-164.224-284.736-320.768-8.192-36.544-10.688-82.24-5.76-107.968 13.891-73.625 72.111-130.419 145.369-142.014l0.999-0.13c8.448-1.344 21.44-1.792 35.84-1.152 34.432 1.408 54.848 8.256 87.232 29.44 23.168 15.104 28.288 16.896 47.104 16.896s23.104-1.536 46.912-16.96c18.624-12.032 35.2-19.904 52.16-24.768 16.448-4.736 52.416-6.464 71.104-3.456 76.365 12.095 135.798 71.896 147.207 147.444l0.121 0.972c2.56 17.472 1.28 57.216-2.56 80.32-15.296 91.072-64.064 183.744-133.376 253.376-49.472 49.664-104.768 80.96-157.12 88.832-7.538 1.43-16.21 2.248-25.072 2.248-8.988 0-17.779-0.841-26.3-2.45l0.876 0.138zM527.36 511.104c16.064-2.56 31.040-7.808 49.472-17.216 84.544-43.392 163.328-153.856 185.216-259.456 6.016-29.184 7.488-64.256 3.52-82.24-4.803-21.781-15.653-40.523-30.683-54.94l-0.037-0.036c-19.633-20.502-47.226-33.244-77.796-33.244-0.865 0-1.728 0.010-2.588 0.031l0.128-0.002c-25.344 0-37.44 4.288-67.712 23.808-30.208 19.584-58.816 26.688-90.944 22.656-21.632-2.752-36.16-8.448-61.888-24.448-8.674-5.622-18.887-11.336-29.463-16.415l-1.705-0.737c-13.504-5.12-41.344-6.272-58.88-2.368-41.423 9.776-73.647 41.19-84.426 81.38l-0.182 0.796c-6.464 25.088-3.456 66.304 7.744 107.392 33.088 121.088 136.128 237.376 225.216 254.208 15.040 2.88 21.12 3.008 35.008 0.832z" />
<glyph unicode="&#xe90c;" glyph-name="Hand-right" d="M395.072 929.792c-18.521-3.238-34.996-10.127-49.324-19.925l0.428 0.277c-4.224-3.072-82.304-67.712-173.44-143.68-122.176-101.76-166.528-139.648-168.832-144.192-2.88-5.824-3.072-19.904-3.52-267.072-0.256-175.872 0.128-262.976 1.344-267.392 2.562-8.295 7.95-15.076 15.016-19.37l0.152-0.086c7.488-3.84 388.416-98.368 404.928-100.416 18.112-2.304 43.648 0.064 62.016 5.696 39.937 12.624 72.428 39.067 92.575 73.595l0.417 0.773c13.888 24.128 15.68 32.384 33.28 151.36 8.896 60.224 16.576 112 17.152 115.008l0.896 5.504 143.744 0.576c128.128 0.512 144.896 0.896 154.368 3.456 46.322 12.237 81.989 48.223 93.566 93.821l0.194 0.899c1.75 8.859 2.752 19.044 2.752 29.463 0 10.54-1.025 20.841-2.98 30.808l0.165-1.007c-10.098 38.721-36.54 69.84-71.326 86.064l-0.802 0.336c-25.088 11.328-8.384 10.624-265.152 11.648-228.288 0.896-233.088 0.96-238.592 4.288-4.013 2.792-7.406 6.144-10.155 9.987l-0.085 0.125c-3.776 5.504-4.608 8.576-4.608 17.152v10.432l42.048 75.904c23.168 41.728 43.328 78.784 44.736 82.368 4.096 9.92 7.936 30.528 7.872 42.496-0.667 35.581-17.399 67.121-43.226 87.759l-0.23 0.177c-19.517 14.994-44.293 24.029-71.18 24.029-5.004 0-9.934-0.313-14.773-0.92l0.577 0.059zM432.896 862.144c22.4-11.328 33.344-38.016 24.832-60.416-1.728-4.48-21.056-40.384-43.008-79.808s-41.728-76.672-43.968-82.752c-18.816-51.392 12.864-109.952 66.944-123.712 8.832-2.24 39.68-2.624 235.84-2.624 160.64 0 228.288-0.512 234.752-1.92 34.304-7.232 57.408-40.64 50.944-73.536-4.706-26.33-24.825-46.901-50.526-52.216l-0.418-0.072c-6.336-1.344-55.168-1.92-161.6-1.92-103.424 0-154.112-0.576-157.376-1.856-7.501-3.689-13.5-9.462-17.369-16.562l-0.103-0.206c-0.96-2.432-10.24-61.632-20.544-131.584-11.264-76.16-20.224-131.392-22.336-137.728-13.184-39.616-55.168-67.84-96.32-64.832-7.424 0.576-79.872 17.92-190.72 45.632l-178.752 44.736v472l157.44 131.2c86.592 72.128 160 132.992 163.136 135.168 7.629 5.158 17.033 8.235 27.156 8.235 8.021 0 15.592-1.932 22.271-5.355l-0.276 0.128z" />
<glyph unicode="&#xe90d;" glyph-name="Landing-page" d="M114.368 958.784c-54.026-6.454-97.43-45.414-110.4-96.514l-0.192-0.894c-2.752-10.688-2.944-37.824-2.944-413.376s0.192-402.688 2.944-413.376c12.16-47.232 47.616-82.688 94.848-94.848 10.688-2.752 37.824-2.944 413.376-2.944s402.688 0.192 413.376 2.944c46.78 11.951 82.897 48.068 94.652 93.946l0.196 0.902c2.752 10.688 2.944 37.824 2.944 413.376s-0.192 402.688-2.944 413.376c-11.937 46.484-47.621 82.444-93.038 94.576l-0.914 0.208c-9.92 2.688-38.656 2.944-408.32 3.136-36.124 0.075-78.859 0.117-121.603 0.117-99.143 0-198.232-0.228-297.267-0.684l15.287 0.055zM908.288 894.912c25.856-5.44 45.184-24.768 50.624-50.624 1.344-6.080 1.92-41.024 1.92-107.072v-98.048h-897.664v98.048c0 66.048 0.576 100.992 1.92 107.072 5.312 25.152 23.488 43.968 48.384 50.176 11.776 2.88 781.12 3.392 794.816 0.448zM320.832 287.552v-288.384h-98.048c-66.048 0-100.992 0.576-107.072 1.92-25.554 5.273-45.351 25.070-50.552 50.205l-0.072 0.419c-1.408 6.464-1.92 82.432-1.92 266.688v257.6h257.664v-288.448zM960.832 318.4c0-184.256-0.512-260.224-1.92-266.688-2.745-12.967-8.981-24.182-17.67-32.966l0.006 0.006c-8.778-8.683-19.993-14.919-32.529-17.587l-0.431-0.077c-6.464-1.408-82.432-1.92-266.688-1.92h-257.6v576.832h576.832v-257.6z" />
<glyph unicode="&#xe90e;" glyph-name="Like" d="M423.040 956.224c-1.088-2.112-31.552-92.16-67.584-200.128-72.064-215.872-70.464-210.304-64-230.784 8.278-26.019 32.226-44.539 60.5-44.539 24.327 0 45.452 13.71 56.070 33.825l0.166 0.345c2.432 4.928 28.736 82.24 58.56 171.712l54.144 162.688 5.888-5.696c3.264-3.136 8.32-10.624 11.328-16.704l5.44-11.072 0.896-143.424c0.768-131.072 1.088-144 3.84-150.848 6.464-16.32 21.056-30.784 37.44-37.376 6.656-2.688 20.224-3.008 150.72-3.776l143.36-0.896 11.392-5.376c22.4-10.624 35.52-29.568 36.864-53.248 0.704-12.096-1.856-24.768-36.16-179.072-20.288-91.264-38.464-169.344-40.384-173.44-8.254-16.476-22.748-28.798-40.303-33.994l-0.465-0.118c-8.256-2.432-34.048-2.752-238.144-2.752-254.208 0-238.528 0.704-256.448-11.392-11.136-7.552-20.352-19.84-24.448-32.64-3.008-9.472-3.136-4.096-3.2 239.488-0.128 154.176-0.768 253.568-1.856 260.8-3.006 22.484-17.207 41.079-36.723 50.202l-0.397 0.166-9.728 4.544h-111.808c-111.488 0-111.808 0-119.872-3.776l-8.128-3.712v-599.232h279.68l3.52 9.472c1.726 4.339 3.010 9.382 3.621 14.63l0.027 0.282c0.128 4.224 0.832 2.944 3.072-5.632 1.6-6.080 3.904-12.8 5.056-14.912l2.112-3.84h602.56l9.728 7.488c21.888 16.896 43.52 43.2 56.192 68.48 8.896 17.792 13.44 35.136 36.224 137.792l22.208 100.288v272.704l-7.616 10.112c-23.424 31.232-60.992 56.384-101.824 68.224l-16 4.608-225.792 1.152-0.832 107.904c-0.704 100.672-0.96 108.864-4.224 123.2-10.304 45.632-33.408 83.712-67.2 110.72l-14.144 11.328h-161.28l-2.048-3.776zM160 224l0.448-192.448h-64.896v191.744c0 105.408 0.576 192.256 1.216 192.896s15.040 0.96 32 0.704l30.784-0.448 0.448-192.448z" />
<glyph unicode="&#xe90f;" glyph-name="More" d="M109.248 574.080c-28.443-4.327-53.176-17.74-71.698-37.136l-0.046-0.048c-12.032-12.032-16-17.536-22.592-30.848-3.995-7.902-7.696-17.242-10.569-26.937l-0.311-1.223c-1.791-8.96-2.816-19.261-2.816-29.801 0-10.419 1.002-20.605 2.914-30.465l-0.162 1.002c11.756-46.778 47.878-82.899 93.764-94.466l0.892-0.19c15.168-3.712 43.648-3.648 59.264 0.064 10.918 3.184 20.258 6.885 29.16 11.332l-1-0.452c13.632 6.656 18.624 10.368 31.616 23.424 13.056 12.992 16.768 17.984 23.424 31.616 10.304 20.928 13.696 35.392 13.696 58.048s-3.392 37.12-13.696 58.048c-6.656 13.632-10.368 18.624-23.424 31.616-12.992 13.056-17.984 16.768-31.616 23.424-17.274 8.923-37.703 14.154-59.353 14.154-6.152 0-12.206-0.422-18.134-1.24l0.687 0.078zM493.248 574.080c-28.443-4.327-53.176-17.74-71.698-37.136l-0.046-0.048c-12.032-12.032-16-17.536-22.592-30.848-3.995-7.902-7.696-17.242-10.569-26.937l-0.311-1.223c-1.791-8.96-2.816-19.261-2.816-29.801 0-10.419 1.002-20.605 2.914-30.465l-0.162 1.002c11.756-46.778 47.878-82.899 93.764-94.466l0.892-0.19c15.168-3.712 43.648-3.648 59.264 0.064 10.918 3.184 20.258 6.885 29.16 11.332l-1-0.452c13.632 6.656 18.624 10.368 31.616 23.424 13.056 12.992 16.768 17.984 23.424 31.616 10.304 20.928 13.696 35.392 13.696 58.048s-3.392 37.12-13.696 58.048c-6.656 13.632-10.368 18.624-23.424 31.616-12.992 13.056-17.984 16.768-31.616 23.424-17.274 8.923-37.703 14.154-59.353 14.154-6.152 0-12.206-0.422-18.134-1.24l0.687 0.078zM877.248 574.080c-28.443-4.327-53.176-17.74-71.698-37.136l-0.046-0.048c-12.032-12.032-16-17.536-22.592-30.848-3.995-7.902-7.696-17.242-10.569-26.937l-0.311-1.223c-1.791-8.96-2.816-19.261-2.816-29.801 0-10.419 1.002-20.605 2.914-30.465l-0.162 1.002c11.756-46.778 47.878-82.899 93.764-94.466l0.892-0.19c15.168-3.712 43.648-3.648 59.264 0.064 10.918 3.184 20.258 6.885 29.16 11.332l-1-0.452c13.632 6.656 18.624 10.368 31.616 23.424 13.056 12.992 16.768 17.984 23.424 31.616 10.304 20.928 13.696 35.392 13.696 58.048s-3.392 37.12-13.696 58.048c-6.656 13.632-10.368 18.624-23.424 31.616-12.992 13.056-17.984 16.768-31.616 23.424-17.274 8.923-37.703 14.154-59.353 14.154-6.152 0-12.206-0.422-18.134-1.24l0.687 0.078zM140.288 510.912c26.56-5.632 45.568-25.216 50.944-52.288 5.056-25.984-9.536-55.296-33.728-67.52-8.557-4.538-18.708-7.203-29.482-7.203-25.99 0-48.358 15.508-58.356 37.775l-0.162 0.404c-4.736 9.984-5.376 13.248-5.376 25.92s0.64 15.936 5.376 25.92c10.624 22.784 32.704 37.76 57.152 38.72 2.496 0.128 8.64-0.64 13.632-1.728zM524.288 510.912c26.56-5.632 45.568-25.216 50.944-52.288 5.056-25.984-9.536-55.296-33.728-67.52-8.557-4.538-18.708-7.203-29.482-7.203-25.99 0-48.358 15.508-58.356 37.775l-0.162 0.404c-4.736 9.984-5.376 13.248-5.376 25.92s0.64 15.936 5.376 25.92c10.624 22.784 32.704 37.76 57.152 38.72 2.496 0.128 8.64-0.64 13.632-1.728zM908.288 510.912c26.56-5.632 45.568-25.216 50.944-52.288 5.056-25.984-9.536-55.296-33.728-67.52-8.557-4.538-18.708-7.203-29.482-7.203-25.99 0-48.358 15.508-58.356 37.775l-0.162 0.404c-4.736 9.984-5.376 13.248-5.376 25.92s0.64 15.936 5.376 25.92c10.624 22.784 32.704 37.76 57.152 38.72 2.496 0.128 8.64-0.64 13.632-1.728z" />
<glyph unicode="&#xe910;" glyph-name="Next" d="M401.472 763.52c-10.143-5.176-16.967-15.545-16.967-27.509 0-2.896 0.4-5.699 1.147-8.356l-0.052 0.217c1.92-6.976 13.632-19.264 138.048-143.744l135.936-136.128-135.936-136.128c-124.416-124.48-136.128-136.768-138.048-143.744-0.586-2.36-0.923-5.070-0.923-7.858 0-7.347 2.336-14.148 6.305-19.701l-0.070 0.103c6.848-9.6 24.896-14.528 36.928-10.048 7.168 2.688 300.48 296.064 304.448 304.576 1.754 3.745 2.903 8.103 3.195 12.695l0.005 0.105c-0.297 4.697-1.446 9.055-3.293 13.023l0.093-0.223c-3.968 8.512-297.28 301.888-304.448 304.576-3.236 1.054-6.96 1.662-10.826 1.662-5.649 0-10.996-1.298-15.757-3.612l0.214 0.094z" />
<glyph unicode="&#xe911;" glyph-name="PR" d="M21.312 957.44c-9.286-3.847-16.364-11.426-19.452-20.816l-0.068-0.24c-1.28-4.8-1.728-133.184-1.344-435.776 0.448-398.784 0.704-429.696 3.392-439.616 17.408-63.424 61.504-106.816 123.264-121.344 10.944-2.56 43.392-2.816 368.704-2.816 382.976 0 364.544-0.384 393.92 8.768 30.452 9.565 56.44 25.924 77.2 47.374l0.048 0.050c27.968 27.968 44.032 57.6 52.864 97.472 3.584 16.256 5.248 67.52 2.496 77.568-3.404 10.322-11.242 18.348-21.199 21.94l-0.241 0.076c-9.6 2.688-712.192 2.688-721.792 0-9.899-3.619-17.565-11.285-21.106-20.941l-0.078-0.243c-1.152-4.032-1.92-22.528-1.92-45.504 0-21.44-0.832-42.816-1.856-47.808-6.848-33.024-34.176-61.888-68.736-72.64-12.16-3.776-38.272-3.648-51.456 0.32-34.551 10.299-60.696 38.296-68.173 73.215l-0.115 0.641c-2.176 10.752-2.496 64-2.112 415.616l0.448 403.264h768l0.832-310.016 0.896-310.016 5.12-6.4c7.808-9.664 15.168-13.056 26.688-12.288 11.357 0.213 21.179 6.584 26.288 15.905l0.080 0.159c3.136 6.336 3.264 15.808 3.712 331.456 0.256 232.832-0.128 326.848-1.472 331.84-3.512 10.050-11.24 17.841-21.007 21.364l-0.241 0.076c-4.864 1.344-125.12 1.856-425.728 1.856-356.672-0.064-420.032-0.448-425.856-2.496zM209.984 763.968c-4.31-2.63-7.986-5.797-11.081-9.469l-0.055-0.067c-4.608-5.696-5.12-7.616-5.12-17.856 0-9.6 0.704-12.608 4.544-18.368 2.496-3.776 7.488-8.32 11.072-10.112 6.336-3.136 13.76-3.264 238.656-3.264s232.32 0.128 238.656 3.264c9.48 5.189 15.851 15.011 16.064 26.339v0.029c0.768 11.648-2.56 18.944-12.096 26.56l-6.592 5.248-234.048 0.448c-225.664 0.448-234.304 0.32-240-2.752zM214.208 573.952c-8.095-2.576-14.525-8.358-17.91-15.817l-0.074-0.183c-2.096-4.088-3.324-8.919-3.324-14.037 0-12.098 6.864-22.592 16.91-27.801l0.174-0.082c5.696-3.072 14.336-3.2 240-2.752l234.048 0.448 6.592 5.248c9.536 7.616 12.864 14.912 12.096 26.56-0.213 11.357-6.584 21.179-15.905 26.288l-0.159 0.080c-6.336 3.136-14.080 3.264-236.928 3.52-159.936 0.256-232-0.256-235.52-1.472zM209.984 379.968c-4.31-2.63-7.986-5.797-11.081-9.469l-0.055-0.067c-4.608-5.696-5.12-7.616-5.12-17.856 0-9.6 0.704-12.608 4.544-18.368 2.496-3.776 7.488-8.32 11.072-10.112 6.336-3.136 13.76-3.264 238.656-3.264s232.32 0.128 238.656 3.264c9.48 5.189 15.851 15.011 16.064 26.339v0.029c0.768 11.648-2.56 18.944-12.096 26.56l-6.592 5.248-234.048 0.448c-225.664 0.448-234.304 0.32-240-2.752zM960 127.168c2.048-3.328-2.944-30.208-8.256-44.416-13.056-34.752-39.808-61.44-74.496-74.496-7.907-2.96-17.293-5.473-26.979-7.103l-0.925-0.129c-13.248-1.856-560.896-2.88-560.896-1.088 0 0.512 2.752 5.248 6.208 10.56 16.96 26.56 22.976 47.936 23.936 85.952 0.448 15.488 1.088 29.12 1.472 30.272 0.896 2.752 638.208 3.2 639.936 0.448z" />
<glyph unicode="&#xe912;" glyph-name="Remove" d="M149.568 829.504c-12.339-4.338-21.025-15.89-21.025-29.472 0-3.113 0.456-6.12 1.306-8.957l-0.057 0.221c1.92-7.36 13.824-19.648 169.536-175.616l167.424-167.68-167.424-167.68c-149.568-149.824-167.616-168.448-169.472-175.104-0.805-2.661-1.269-5.719-1.269-8.885 0-17.532 14.212-31.744 31.744-31.744 3.166 0 6.224 0.464 9.109 1.326l-0.225-0.058c6.656 1.856 25.28 19.904 175.104 169.472l167.68 167.424 167.68-167.424c149.824-149.568 168.448-167.616 175.104-169.472 2.661-0.805 5.719-1.269 8.885-1.269 17.532 0 31.744 14.212 31.744 31.744 0 3.166-0.464 6.224-1.326 9.109l0.058-0.225c-1.856 6.656-19.904 25.28-169.472 175.104l-167.424 167.68 167.424 167.68c149.568 149.824 167.616 168.448 169.472 175.104 0.805 2.661 1.269 5.719 1.269 8.885 0 17.532-14.212 31.744-31.744 31.744-3.166 0-6.224-0.464-9.109-1.326l0.225 0.058c-6.656-1.856-25.28-19.904-175.104-169.472l-167.68-167.424-167.68 167.424c-145.792 145.536-168.576 167.616-174.72 169.344-8.832 2.496-11.84 2.432-20.032-0.512z" />
<glyph unicode="&#xe913;" glyph-name="Search-2" d="M383.104 958.336c-147.11-12.482-271.371-99.592-335.801-222.913l-1.095-2.303c-28.749-54.952-45.615-120.035-45.615-189.058 0-85.459 25.857-164.879 70.173-230.863l-0.942 1.489c70.72-105.92 179.648-171.2 307.264-184.32 10.719-0.802 23.219-1.26 35.825-1.26 24.405 0 48.41 1.714 71.901 5.028l-2.702-0.312c70.013 11.632 132.092 39.137 184.547 78.717l-1.059-0.765c23.232 17.28 65.728 59.776 82.688 82.624 39.629 52.835 67.511 116.709 78.533 186.197l0.315 2.411c3.84 23.296 4.352 92.16 0.96 116.032-19.52 134.912-99.648 249.472-218.816 312.896-41.052 21.66-88.827 37.304-139.379 44.227l-2.253 0.253c-16.621 1.687-35.919 2.648-55.443 2.648-10.236 0-20.41-0.264-30.516-0.787l1.415 0.058zM466.88 892.544c49.593-7.312 94.13-24.057 133.459-48.412l-1.491 0.86c23.488-14.272 39.552-26.88 61.312-47.936 32.448-31.36 53.568-60.352 72.896-100.224 23.744-49.088 34.88-98.048 34.944-153.6-0.211-153.154-98.29-283.346-235.040-331.406l-2.464-0.754c-34.159-12.157-73.56-19.182-114.602-19.182-83.41 0-160.042 29.016-220.354 77.506l0.684-0.532c-22.675 19.24-42.911 39.963-61.079 62.426l-0.681 0.87c-43.833 57.295-70.235 129.951-70.235 208.774 0 1.528 0.010 3.054 0.030 4.577l-0.002-0.231c-0.016 1.205-0.025 2.627-0.025 4.052 0 41.747 7.733 81.689 21.845 118.47l-0.764-2.266c47.232 127.36 161.792 215.424 298.688 229.568 8.443 0.591 18.297 0.928 28.23 0.928 19.267 0 38.238-1.267 56.834-3.724l-2.184 0.236zM789.312 189.504c-9.406-3.968-16.545-11.734-19.582-21.325l-0.066-0.243c-0.722-2.444-1.137-5.252-1.137-8.157 0-5.323 1.395-10.321 3.839-14.647l-0.077 0.149c1.408-2.944 47.68-50.432 102.848-105.344 88.576-88.384 101.056-100.224 107.648-102.080 2.633-0.786 5.659-1.239 8.791-1.239 17.567 0 31.808 14.241 31.808 31.808 0 3.132-0.453 6.158-1.296 9.016l0.057-0.225c-1.856 6.592-13.696 19.072-102.080 107.648-56.256 56.448-102.464 101.504-105.728 103.040-4.181 2.169-9.129 3.44-14.373 3.44-3.819 0-7.48-0.674-10.872-1.911l0.221 0.070z" />
<glyph unicode="&#xe914;" glyph-name="Search" d="M390.848 936.768c-59.136-7.232-100.096-18.944-145.92-41.92-116.992-58.496-198.080-170.368-218.752-301.824-4.352-27.584-4.352-91.84 0-119.36 18.112-115.2 80.832-213.568 176.896-277.44 49.152-32.64 104.32-53.952 163.904-63.424 30.272-4.8 95.552-4.288 125.12 0.96 40.23 7.010 76.186 18.531 109.776 34.263l-2.64-1.111 12.928 6.016 101.376-101.504c117.12-117.184 111.168-112.384 139.776-112.384 26.816 0 27.712 0.576 86.72 59.392 59.648 59.456 60.928 61.312 60.928 88.256 0 28.608 4.8 22.656-112.384 139.776l-101.504 101.376 6.016 12.928c14.676 31.11 26.261 67.256 32.959 105.089l0.385 2.623c5.056 29.184 5.44 96.832 0.768 125.44-6.044 36.863-15.777 69.837-29.041 100.944l1.073-2.832c-49.508 113.295-145.858 198.234-263.89 231.252l-2.862 0.684c-36.288 9.664-56.96 12.416-98.112 12.992-5.513 0.148-12.004 0.233-18.514 0.233-8.794 0-17.551-0.154-26.27-0.46l1.264 0.035zM452.544 809.728c141.721-13.7 251.622-132.192 251.622-276.353 0-45.083-10.748-87.655-29.821-125.295l0.728 1.583c-22.171-44.117-54.384-80.309-93.781-106.571l-1.003-0.629c-43.163-29.318-96.422-46.808-153.766-46.808-76.601 0-145.912 31.209-195.912 81.606l-0.018 0.018c-47.36 47.296-74.368 105.6-80.64 174.272-0.527 6.429-0.828 13.917-0.828 21.475 0 53.767 15.218 103.98 41.581 146.567l-0.688-1.194c56.64 90.688 158.72 141.824 262.528 131.328z" />
<glyph unicode="&#xe915;" glyph-name="Send" d="M943.808 957.76c-20.288-6.016-904.768-322.944-912-326.848-11.529-6.945-20.59-16.954-26.197-28.905l-0.171-0.407c-3.648-7.808-4.352-11.968-4.416-24.768-0.064-18.944 3.904-30.080 15.36-43.136 7.68-8.832 12.096-11.136 159.808-85.056 83.52-41.792 152.832-75.584 153.92-75.136 1.536 0.576 258.432 183.552 365.376 260.288 4.672 3.392 7.616 4.992 6.592 3.584-7.36-9.536-264-369.664-264.576-371.264-0.448-1.152 33.344-70.4 75.136-153.92 73.92-147.712 76.224-152.128 85.056-159.808 12.8-11.2 24.256-15.36 42.304-15.36 0.979-0.059 2.124-0.093 3.277-0.093 7.548 0 14.758 1.444 21.37 4.070l-0.392-0.137c11.968 4.736 24.704 15.936 30.72 26.944 2.432 4.544 77.248 211.84 166.272 460.544l161.728 452.288 0.064 15.36c0.064 13.76-0.512 16.512-5.248 26.432-9.656 20.952-29.922 35.519-53.723 36.857l-0.165 0.007c-1.441 0.107-3.122 0.167-4.817 0.167-5.417 0-10.688-0.621-15.747-1.795l0.468 0.092z" />
<glyph unicode="&#xe916;" glyph-name="Story" d="M104.256 893.312c-48.384-9.6-85.312-44.16-99.584-93.376l-3.84-13.184v-549.504l3.968-13.568c12.736-44.032 43.072-75.52 86.528-89.984 11.904-3.968 12.224-3.968 129.024-4.8l117.12-0.896 77.632-93.12c58.304-69.952 79.104-93.76 83.456-95.616 4.002-1.461 8.622-2.306 13.44-2.306s9.438 0.845 13.721 2.395l-0.281-0.089c4.352 1.856 25.152 25.664 83.456 95.616l77.632 93.12 117.12 0.896c117.056 0.832 117.12 0.832 129.024 4.864 43.968 14.656 73.728 45.504 86.592 89.984l3.904 13.504v549.504l-3.968 13.568c-12.864 44.48-42.368 75.136-86.528 89.984l-11.904 3.968-404.48 0.256c-225.216 0.128-407.872-0.384-412.032-1.216zM923.648 825.536c14.016-6.912 26.88-20.416 32.384-34.048l3.968-9.856v-539.264l-3.968-9.856c-6.717-14.842-17.981-26.643-31.991-33.864l-0.393-0.184-11.328-5.632-124.672-0.832c-121.728-0.832-124.736-0.96-130.56-4.352-3.648-2.112-32.896-35.776-74.88-86.208-29.578-35.896-52.452-62.908-75.593-89.684l5.641 6.676c-0.64-0.128-32.192 37.056-70.208 82.752-42.752 51.328-71.424 84.352-75.136 86.528-5.76 3.328-9.344 3.456-130.56 4.288l-124.672 0.832-11.328 5.632c-14.403 7.405-25.667 19.206-32.205 33.608l-0.179 0.44-3.968 9.856v539.264l3.904 9.728c8.036 18.003 22.944 31.721 41.301 37.998l0.491 0.146c5.888 1.856 79.36 2.24 404.928 1.984l397.632-0.32 11.392-5.632zM405.312 701.504c-9.183-3.852-16.204-11.312-19.384-20.559l-0.072-0.241c-2.624-9.344-2.56-328.256 0.064-337.6 1.827-5.117 4.6-9.496 8.136-13.128l-0.008 0.008c15.296-15.232 40.32-11.392 49.536 7.68 3.584 7.424 3.584 7.744 3.136 176.32l-0.448 168.96-4.544 6.848c-5.748 8.229-15.174 13.545-25.842 13.545-3.792 0-7.427-0.672-10.793-1.902l0.218 0.070zM209.984 636.096c-4.296-2.697-7.968-5.901-11.078-9.594l-0.058-0.070-5.12-6.4-0.448-106.048c-0.512-119.168-1.216-112.192 12.288-123.136 5.696-4.608 7.616-5.12 17.856-5.12 9.6 0 12.608 0.704 18.368 4.544 13.888 9.216 13.376 4.16 13.376 121.728 0 98.944-0.192 104.448-3.264 110.656-6.912 13.952-28.48 20.864-41.92 13.44zM785.472 635.648c-7.885-3.753-13.68-10.809-15.643-19.329l-0.037-0.191c-1.408-4.992-1.856-34.56-1.472-107.52 0.576-113.6 0.064-109.184 13.888-118.336 5.76-3.84 8.768-4.544 18.368-4.544 10.24 0 12.16 0.512 18.048 5.248 13.184 10.496 12.544 4.352 12.544 121.024 0 116.544 0.576 110.528-12.416 120.96-5.22 3.819-11.767 6.111-18.85 6.111-5.262 0-10.228-1.265-14.612-3.507l0.182 0.084zM598.208 573.888c-7.952-2.472-14.298-8.066-17.717-15.312l-0.075-0.176c-3.264-6.784-3.584-10.304-3.584-46.4s0.32-39.616 3.584-46.4c5.108-10.187 15.469-17.056 27.435-17.056 8.684 0 16.523 3.618 22.091 9.429l0.010 0.011c3.528 3.624 6.301 8.003 8.050 12.87l0.078 0.25c1.088 3.904 1.92 21.248 1.92 40.896s-0.832 36.992-1.92 40.896c-3.619 9.899-11.285 17.565-20.941 21.106l-0.243 0.078c-8.128 2.304-11.904 2.24-18.688-0.192z" />
<glyph unicode="&#xe917;" glyph-name="Translate" d="M342.208 957.888c-7.952-2.472-14.298-8.066-17.717-15.312l-0.075-0.176c-3.392-6.976-3.584-10.176-3.584-58.88v-51.456l-116.48-0.448c-131.392-0.512-124.864 0.128-134.080-13.824-3.84-5.76-4.544-8.768-4.544-18.368 0-10.24 0.512-12.16 5.12-17.856 10.304-12.672 10.496-12.736 70.272-12.736h53.248l1.088-8.064c11.292-83.702 45.121-157.943 95.107-218.32l-0.579 0.72 13.824-16.64-7.232-5.184c-12.8-9.344-44.8-27.136-64.32-35.904-36.952-16.616-79.878-29.401-124.756-36.257l-2.796-0.351c-20.928-2.688-28.48-6.016-34.368-14.912-5.952-9.024-7.040-23.552-2.432-31.936 4.748-8.76 13.185-15.004 23.17-16.678l0.19-0.026c16.512-1.856 70.208 8.256 108.16 20.352 50.295 15.519 94.104 37.043 133.663 64.294l-1.631-1.062 20.032 13.504 14.144-10.176c29.312-21.248 60.992-38.528 95.168-51.968 40.256-15.808 54.72-18.176 67.264-10.816 8.964 5.858 14.804 15.845 14.804 27.197 0 5.374-1.309 10.442-3.625 14.903l0.085-0.18c-4.672 9.28-9.664 12.16-35.008 20.416-33.026 11.325-61.603 25.349-88.028 42.418l1.564-0.946-18.432 12.224 3.776 4.608c33.6 40.832 44.736 56.96 60.032 86.912 21.182 41.721 36.759 90.175 44.118 141.285l0.298 2.523 1.152 8.064h53.12c50.368 0 53.504 0.192 60.48 3.584 10.187 5.108 17.056 15.469 17.056 27.435 0 8.684-3.618 16.523-9.429 22.091l-0.011 0.010c-3.624 3.528-8.003 6.301-12.87 8.050l-0.25 0.078c-4.608 1.28-42.624 1.92-119.808 1.92h-113.088v49.088c0 30.528-0.704 51.584-1.92 55.808-4.792 13.117-16.922 22.418-31.295 22.974l-0.065 0.002c-3.151-0.339-6.033-1.039-8.755-2.064l0.243 0.080zM443.712 763.712c0-9.088-8.64-46.464-15.616-67.392-10.206-29.54-22.533-55.037-37.409-78.774l0.929 1.59c-11.072-16.96-28.864-40.192-35.712-46.528l-4.544-4.224-2.88 3.52-13.824 17.024c-29.12 36.077-51.743 78.76-65.282 125.311l-0.638 2.561c-5.248 19.328-11.008 49.792-9.664 51.136 0.448 0.448 42.24 0.896 92.736 0.896h91.904v-5.12zM725.504 573.824c-4.318-1.75-8.014-4.174-11.148-7.179l0.012 0.011c-4.032-4.032-31.744-65.792-119.168-265.664-102.72-234.816-113.92-261.248-113.92-269.248 0-9.984 2.56-15.936 9.664-22.656 5.639-5.177 13.19-8.35 21.482-8.35 3.936 0 7.706 0.715 11.185 2.022l-0.219-0.072c11.776 4.416 14.144 8.832 54.4 100.8l38.784 88.512 239.232-0.832 38.72-88.512c21.312-48.64 40.128-89.984 41.856-91.904 6.121-5.942 14.41-9.68 23.57-9.919l0.046-0.001c0.115-0.002 0.25-0.002 0.386-0.002 17.072 0 30.912 13.84 30.912 30.912 0 1.219-0.071 2.421-0.208 3.602l0.014-0.144c-0.768 5.568-31.040 76.288-93.504 218.24l-73.152 167.232c-66.368 151.808-65.088 149.44-79.744 153.472-2.731 0.996-5.883 1.573-9.17 1.573-3.61 0-7.057-0.695-10.215-1.958l0.185 0.065zM782.336 359.168l45.12-103.168-90.56-0.448c-49.856-0.256-90.944-0.128-91.328 0.32-0.64 0.576 83.52 194.88 88.64 204.672 0.896 1.728 1.92 2.816 2.304 2.432s20.992-47.104 45.824-103.808z" />
<glyph unicode="&#xe918;" glyph-name="User" d="M487.424 958.208c-53.097-6.254-99.682-30.204-134.56-65.696l-0.032-0.032c-29.812-30.203-51.145-68.843-60.099-112.015l-0.253-1.457c-4.288-20.032-4.352-64.96-0.064-85.248 19.84-94.144 91.456-163.136 185.024-178.496 20.032-3.328 61.248-2.432 79.808 1.728 78.72 17.536 141.632 73.28 166.336 147.392 8.832 26.496 11.072 41.152 11.008 72.064 0 39.104-5.696 64.128-22.4 98.496-37.606 74.401-113.458 124.524-201.017 124.524-8.366 0-16.625-0.458-24.754-1.349l1.004 0.089zM546.24 892.544c53.44-11.2 100.992-54.016 117.568-105.728 13.568-42.368 10.752-82.624-8.32-121.216-18.321-37.257-49.743-65.727-88.116-79.776l-1.1-0.352c-21.76-7.808-38.080-10.112-62.4-9.024-30.014 0.994-57.597 10.613-80.571 26.442l0.507-0.33c-41.442 27.449-69.059 72.898-71.665 124.936l-0.015 0.376c-0.157 2.635-0.246 5.717-0.246 8.819 0 45.299 19.023 86.156 49.517 115.016l0.073 0.069c28.636 27.527 67.612 44.479 110.548 44.479 12.126 0 23.936-1.352 35.287-3.914l-1.067 0.202zM465.92 413.12c-136.448-15.808-251.392-85.44-326.528-197.76-46.656-69.76-77.184-169.536-74.304-242.88 0.512-13.248 1.28-16.384 5.184-22.272 2.496-3.776 7.488-8.32 11.072-10.112 6.4-3.136 16.96-3.264 430.656-3.264s424.256 0.128 430.656 3.264c4.462 2.586 8.163 6.001 10.999 10.065l0.073 0.111c4.48 6.656 4.544 7.488 4.416 32.576-0.256 59.776-16 123.712-45.056 182.784-65.344 133.12-190.72 223.744-339.968 245.76-18.915 2.156-40.838 3.386-63.047 3.386-15.538 0-30.936-0.602-46.171-1.784l2.019 0.126zM568.32 348.16c125.74-19.309 229.923-97.177 285.199-204.375l1.009-2.153c20.672-40.768 35.456-89.728 39.040-129.344l1.216-13.12h-765.568l1.216 13.12c3.648 40.64 18.624 89.536 40.064 131.136 37.939 73.767 97.163 132.063 169.507 167.846l2.205 0.986c45.248 22.208 85.248 33.408 139.904 39.104 14.016 1.472 68.928-0.576 86.208-3.2z" />
<glyph unicode="&#xe919;" glyph-name="Video" d="M70.848 891.968c-32.064-9.28-57.088-33.92-66.88-65.92-3.008-9.792-3.136-26.56-3.136-378.048s0.128-368.256 3.136-378.048c7.488-24.576 25.088-46.272 46.848-57.664 23.296-12.288-12.8-11.392 461.184-11.392s437.888-0.896 461.184 11.392c22.343 12.436 39.072 32.682 46.66 56.966l0.188 0.698c3.008 9.792 3.136 26.56 3.136 378.048 0 351.232-0.192 368.256-3.136 378.048-9.23 29.733-31.195 53.063-59.352 63.961l-0.68 0.231-10.24 4.032-434.368 0.32c-407.424 0.32-434.944 0.128-444.544-2.624zM940.864 829.696c7.424-3.072 16-13.184 18.24-21.376 1.216-4.608 1.664-118.144 1.344-363.968-0.448-353.856-0.512-357.376-3.84-363.136-2.886-4.217-6.18-7.857-9.904-11.006l-0.080-0.066-6.592-5.312h-856.064l-6.592 5.312c-3.804 3.215-7.098 6.855-9.864 10.887l-0.12 0.185c-3.328 5.76-3.392 9.28-3.84 363.136-0.32 245.824 0.128 359.36 1.344 363.968 3.188 9.215 9.509 16.656 17.661 21.212l0.195 0.1c7.744 3.392 850.048 3.456 858.112 0.064zM342.208 701.888c-7.952-2.472-14.298-8.066-17.717-15.312l-0.075-0.176c-3.584-7.36-3.584-7.68-3.584-238.4s0-231.040 3.584-238.4c6.528-13.44 22.144-20.224 35.84-15.68 7.232 2.432 356.48 223.36 364.864 230.848 5.89 6.060 9.724 14.145 10.361 23.114l0.007 0.118c-0.644 9.087-4.478 17.172-10.376 23.241l0.008-0.009c-6.848 6.080-356.928 228.16-363.328 230.464-2.967 1.245-6.416 1.968-10.034 1.968-3.435 0-6.717-0.652-9.73-1.839l0.18 0.063zM516.352 529.984c69.44-44.224 126.208-81.088 126.208-81.984 0-1.28-243.456-157.568-255.488-164.032-2.944-1.6-3.072 4.48-3.072 164.032s0.128 165.632 3.072 164.032c1.728-0.96 59.904-37.824 129.28-82.048z" />
<glyph unicode="&#xe91a;" glyph-name="View" d="M479.232 830.144c-143.744-11.84-291.328-109.76-413.888-274.624-18.752-25.216-49.28-71.168-59.136-88.896-11.072-20.032-9.856-23.936 24.128-75.776 105.536-161.216 238.528-272.128 372.16-310.592 32.78-9.905 70.451-15.607 109.454-15.607 38.922 0 76.519 5.678 112.005 16.252l-2.771-0.709c134.016 38.592 267.2 149.632 372.48 310.656 26.816 41.024 29.376 46.016 29.376 57.152 0 11.2-2.56 16.128-30.784 59.264-66.944 102.016-147.072 185.856-231.936 242.56-91.392 61.056-186.304 88.192-281.088 80.32zM539.328 767.104c59.456-5.248 119.104-26.816 178.304-64.512 62.016-39.424 134.464-109.76 190.208-184.576 20.096-27.008 46.208-66.56 46.208-70.016s-26.112-43.008-46.208-70.016c-44.16-59.264-103.552-120.704-152.96-158.272-64.064-48.64-126.144-76.928-194.304-88.512-23.232-3.904-73.92-3.904-97.152 0-69.12 11.712-134.848 42.176-198.912 92.16-48.96 38.208-105.536 97.152-148.352 154.624-20.096 27.008-46.208 66.56-46.208 70.016s26.112 43.008 46.208 70.016c42.816 57.472 99.392 116.416 148.352 154.624 89.984 70.272 183.808 102.464 274.816 94.464zM478.4 636.608c-90.168-16.64-157.568-94.652-157.568-188.406 0-0.071 0-0.142 0-0.213v0.011c-0.001-0.209-0.001-0.457-0.001-0.705 0-105.19 85.274-190.464 190.464-190.464 0.248 0 0.496 0 0.743 0.001h-0.038c0.209-0.001 0.457-0.001 0.705-0.001 105.19 0 190.464 85.274 190.464 190.464 0 0.248 0 0.496-0.001 0.743v-0.038c0 0.109 0 0.237 0 0.366 0 93.999-67.888 172.141-157.309 188.072l-1.155 0.171c-9.96 1.466-21.458 2.304-33.152 2.304s-23.192-0.837-34.437-2.456l1.285 0.152zM542.016 572.544c47.68-12.16 82.816-47.488 94.784-95.488 4.672-18.688 3.84-47.424-1.92-65.728-12.834-41.411-44.797-73.374-85.292-85.963l-0.916-0.245c-18.304-5.76-46.976-6.656-65.728-1.92-58.88 14.72-98.944 65.216-98.944 124.8 0 58.752 39.744 109.632 97.28 124.48 17.664 4.608 42.944 4.608 60.736 0.064z" />
<glyph unicode="&#xe91b;" glyph-name="Star" horiz-adv-x="1103" d="M551.416 131.868l324.529-195.875-86.122 369.168 286.72 248.383-377.565 32.034-147.562 348.16-147.562-348.16-377.565-32.034 286.72-248.383-86.121-369.168 324.529 195.875z" />
</font>
</defs>
</svg>
